<svg width="120" height="128" viewBox="0 0 120 128" fill="none" xmlns="http://www.w3.org/2000/svg">
<path d="M41.2999 81.2H119.3V43.7L31.9 25.4L28.7999 12.5L16.2 8.3C16.2 8.1 16.3 8 16.3 7.8C16.3 3.5 12.8 0 8.49995 0C4.19995 0 0.699951 3.5 0.699951 7.8C0.699951 12.1 4.19995 15.6 8.49995 15.6C10.3 15.6 11.9 15 13.2 14L22.6 18.7L35 78L22.5 87.4V103L28.2 110.1C26.6 112 25.7 114.4 25.7 117.1C25.7 123.1 30.5999 128 36.5999 128C42.5999 128 47.5 123.1 47.5 117.1C47.5 111.1 42.5999 106.2 36.5999 106.2C35.6999 106.2 34.8 106.3 34 106.5L31.9 103.1H97.5L101.1 109.1C98.9 111.1 97.5 114 97.5 117.2C97.5 123.2 102.4 128.1 108.4 128.1C114.4 128.1 119.3 123.2 119.3 117.2C119.3 111.2 114.4 106.3 108.4 106.3C108.3 106.3 108.2 106.3 108.1 106.3L106.8 103.2H119.3V97H28.7999V90.8L41.2999 81.2ZM41.2999 74.9L36.7 53.5L37.2999 56.5L55.7999 58L59.5999 75H41.2999V74.9ZM63.0999 74.9L59.4 58.2L77.5 59.6L78.9 74.9H63.0999ZM81.9 74.9L80.5 59.9L97.5 61.2V74.9H81.9ZM113.1 59.3V74.9H100.6V61.5L113.1 62.5V59.3L100.6 58.3V44.4L113.1 46.8V59.3ZM31.9 31.2L97.5 43.8V58L80.2 56.6L78.7 40.2L75.6 39.6L77.2 56.4L58.7 54.9L54.4 35.6L50.7 34.9L55.0999 54.6L36.5999 53.1L31.9 31.2ZM108.4 112.4C111 112.4 113.1 114.5 113.1 117.1C113.1 119.7 111 121.8 108.4 121.8C105.8 121.8 103.7 119.7 103.7 117.1C103.7 114.5 105.8 112.4 108.4 112.4ZM36.5999 112.4C39.1999 112.4 41.2999 114.5 41.2999 117.1C41.2999 119.7 39.1999 121.8 36.5999 121.8C33.9999 121.8 31.9 119.7 31.9 117.1C31.9 114.5 33.9999 112.4 36.5999 112.4Z" fill="white"/>
</svg>
